<svg width="15" height="14" viewBox="0 0 15 14" fill="none" xmlns="http://www.w3.org/2000/svg">
<path d="M6.67514 0.885392C6.97682 -0.0310237 8.27318 -0.0310261 8.57486 0.88539L9.55969 3.87703C9.69471 4.28718 10.0777 4.56434 10.5095 4.56434H13.6684C14.6403 4.56434 15.041 5.81061 14.2512 6.37699L11.7182 8.19343C11.3631 8.44806 11.2145 8.90374 11.3511 9.31876L12.3239 12.2739C12.6264 13.1929 11.5776 13.9631 10.7913 13.3992L8.20776 11.5466C7.85941 11.2968 7.39059 11.2968 7.04225 11.5466L4.45871 13.3992C3.67245 13.9631 2.62357 13.1929 2.9261 12.2739L3.89892 9.31876C4.03555 8.90374 3.8869 8.44806 3.53182 8.19343L0.998804 6.37699C0.209002 5.81061 0.609673 4.56434 1.58156 4.56434H4.74046C5.17226 4.56434 5.55529 4.28718 5.69031 3.87703L6.67514 0.885392Z" fill="#FFA858"/>
</svg>
